<?xml version="1.0" encoding="UTF-8"?>
<svg id="Layer_1" xmlns="http://www.w3.org/2000/svg" version="1.1" viewBox="0 0 564.09 178.53">
  <!-- Generator: Adobe Illustrator 29.2.0, SVG Export Plug-In . SVG Version: 2.1.0 Build 108)  -->
  <defs>
    <style>
      .st0 {
        fill: #fff;
      }
    </style>
  </defs>
  <path class="st0" d="M546.06,117.93h1.57c1.84,0,3.32-.61,3.32-2.1,0-1.31-.96-2.19-3.06-2.19-.87,0-1.48.09-1.83.18v4.11ZM545.97,126.07h-3.33v-14.35c1.31-.26,3.15-.44,5.51-.44,2.71,0,3.94.44,4.99,1.05.79.61,1.4,1.75,1.4,3.15,0,1.57-1.22,2.8-2.98,3.33v.17c1.4.52,2.19,1.57,2.62,3.5.44,2.18.7,3.06,1.05,3.59h-3.59c-.44-.52-.7-1.84-1.14-3.5-.26-1.57-1.14-2.27-2.98-2.27h-1.57v5.77ZM537.13,118.54c0,6.38,4.72,11.46,11.19,11.46s10.94-5.07,10.94-11.37-4.64-11.54-11.03-11.54-11.11,5.16-11.11,11.46M562.94,118.54c0,8.14-6.38,14.52-14.7,14.52s-14.78-6.38-14.78-14.52,6.56-14.35,14.78-14.35,14.7,6.39,14.7,14.35"/>
  <path class="st0" d="M241.89,39.18c-10.35-.02-19.92,2.9-27.76,8.03v-1.05c0-2.12-1.72-3.84-3.82-3.84h-11.43c-2.1,0-3.81,1.73-3.81,3.84,0,0,.02,24.35.02,25.97s.02,1.93.91,3.06c2.04,2.59,5.94,7.29,10.65,12.59,3.65,3.82,6.02-.84,6.51-3.79,2.34-14.33,13.95-25.62,28.7-25.6,15.92.02,28.86,13.09,28.85,29.14-.02,16.05-12.99,29.09-28.92,29.08-10.95-.02-20.23-5.21-28.86-12.94,0,0-14.31-15.12-21.41-23.81-15.12-18.52-30.74-37.58-53.4-40.37,0,0-3.51-.43-5.65-.46-26.43-.03-47.97,21.62-48,48.27-.02,26.65,21.45,48.34,47.89,48.37,10.81.02,20.78-3.62,28.83-9.74v5.68c0,2.11,1.72,3.84,3.83,3.84h11.43c2.1,0,3.81-1.73,3.81-3.84,0,0-.01-15.81-.01-18.62s.3-6.46-2.68-9.96c-3.6-4.26-4.41-5.91-9.02-10.82-5.41-5.77-7.44-.64-8.01,1.71-3.12,12.87-14.45,22.54-28.14,22.52-15.93-.01-28.86-13.09-28.84-29.13.02-16.05,12.98-29.1,28.91-29.08,19.22.03,33.46,20.49,44.36,33.83,15.12,18.51,32.08,39.27,56.89,43.12,2.6.4,5.3.62,8.08.62,26.44.03,47.97-21.62,48-48.26.04-26.64-21.44-48.35-47.87-48.39"/>
  <path class="st0" d="M49.14,135.69c-.35,0-.7,0-1.05,0-12.8-.27-24.74-5.55-33.59-14.86C5.63,111.51.9,99.27,1.16,86.37c.54-26.31,21.94-47.33,47.91-47.33.33,0,.67,0,1.01,0,10.81.23,20.94,4.15,30.89,11.98,1.31,1.07,1.37,2.24.27,3.6-2.53,3.12-7.84,9.6-8.88,10.66-1.35,1.37-3.3.73-4.1.14-6.3-4.74-12.26-7.02-18.57-7.15-.2-.01-.41-.01-.61-.01-15.65,0-28.54,12.66-28.86,28.51-.16,7.77,2.69,15.15,8.04,20.75,5.34,5.61,12.53,8.79,20.24,8.94,6.6.15,13.51-1.91,19.41-5.71.84-.54,2.56-1.57,4.05.37,1.04,1.35,5.49,7.26,8.08,10.7,1.57,2.23.6,3.44-.04,3.9-9.21,6.46-20.05,9.97-30.86,9.97"/>
  <path class="st0" d="M376.85,14.28c0,7.42-5.97,13.43-13.33,13.43s-13.33-6.01-13.33-13.43,5.98-13.43,13.33-13.43,13.33,6.01,13.33,13.43"/>
  <path class="st0" d="M210.31,177.68c2.1,0,3.82-1.72,3.82-3.84l.03-35.34c0-2.95-.9-4.31-3.2-5.92l-12.93-9.47c-1.61-1.36-2.92-.75-2.92,1.37l-.04,49.36c0,2.12,1.71,3.84,3.81,3.84h11.43Z"/>
  <path class="st0" d="M338.35,114.22h-10.61c-4.99,0-9.05-4.1-9.05-9.13v-46.81h16.77c2.1.01,3.81-1.71,3.81-3.83v-11.53c0-2.12-1.71-3.85-3.81-3.85l-16.76-.02.02-16.7c0-2.12-1.71-3.84-3.81-3.84h-11.44c-2.1,0-3.81,1.72-3.82,3.84v3.98s-.03,78.76-.03,78.76c0,15.63,12.61,28.34,28.12,28.34h10.61c2.1,0,3.81-1.72,3.81-3.84v-11.53c0-2.11-1.72-3.84-3.81-3.84"/>
  <path class="st0" d="M373.08,42.89c0-2.12-1.72-3.85-3.81-3.85h-11.44c-2.1,0-3.82,1.73-3.82,3.85l-.03,86.7c0,2.12,1.71,3.84,3.81,3.84h11.44c2.1,0,3.81-1.73,3.82-3.84l.03-86.7Z"/>
  <path class="st0" d="M530.16,39.04h-13.7c-2.61,0-3.75,1.32-4.48,3.83-.74,2.51-20.81,74.86-20.81,74.86,0,0-21.89-61.01-25.7-71.47-.89-2.45-2.8-7.22-8.4-7.22-4.2,0-36.66.02-36.66.02v-13.33c0-3.71,3.14-6.24,6.61-6.19,2.28.04,5.58.5,8.51.98,1,.17,2.82.55,2.82-3.32V7.02c0-2.44-1.38-2.85-2.12-3.02-3.07-.68-6.75-1.01-11.16-1.01-14.43,0-23.75,9.26-23.75,23.59v12.49h-9.68c-2.09.01-3.81,1.75-3.81,3.86v11.53c0,2.12,1.72,3.84,3.81,3.84h9.68s0,71.29,0,71.29c0,2.12,1.72,3.84,3.81,3.84h11.45c2.09,0,3.81-1.73,3.81-3.84l.03-71.3s25.88-.02,27.23-.02,1.67.82,1.83,1.23c10.92,28.5,31.71,86.8,31.71,86.8,0,6.69-7.66,12.1-17.11,12.1-1.4,0-2.76-.13-4.07-.36-1.21-.13-3.85-.79-3.85,3.59v10.56c0,4.14,2.69,4.29,3.54,4.38,2.4.25,4.37.44,8.87.44,17.91,0,26.45-6.75,32.96-28.56,0,0,30.92-103.84,31.27-105.19s1.12-4.21-2.62-4.21"/>
</svg>